HIERARCHY
ROOT Hips
{
 OFFSET 0.000000 0.000000 0.000000
 CHANNELS 6 Xposition Yposition Zposition Yrotation Xrotation Zrotation
 JOINT Chest
 {
  OFFSET 0.000000 10.080317 -0.001081
  CHANNELS 3 Yrotation Xrotation Zrotation
  JOINT Chest2
  {
   OFFSET 0.000000 11.096852 0.001963
   CHANNELS 3 Yrotation Xrotation Zrotation
   JOINT Chest3
   {
    OFFSET 0.000000 10.026525 0.000000
    CHANNELS 3 Yrotation Xrotation Zrotation
    JOINT Chest4
    {
     OFFSET 0.000000 10.026525 0.000000
     CHANNELS 3 Yrotation Xrotation Zrotation
     JOINT Neck
     {
      OFFSET 0.000000 14.108171 0.000000
      CHANNELS 3 Yrotation Xrotation Zrotation
      JOINT Head
      {
       OFFSET 0.000000 9.333493 0.004668
       CHANNELS 3 Yrotation Xrotation Zrotation
       End Site
       {
        OFFSET 0.000000 17.851786 0.002438
       }
      }
     }
     JOINT RightCollar
     {
      OFFSET -3.071622 7.873185 0.000000
      CHANNELS 3 Yrotation Xrotation Zrotation
      JOINT RightShoulder
      {
       OFFSET -14.378659 0.000000 0.000000
       CHANNELS 3 Yrotation Xrotation Zrotation
       JOINT RightElbow
       {
        OFFSET -30.778728 0.000000 0.000000
        CHANNELS 3 Yrotation Xrotation Zrotation
        JOINT RightWrist
        {
         OFFSET -25.164217 0.000000 0.000000
         CHANNELS 3 Yrotation Xrotation Zrotation
         End Site
         {
          OFFSET -18.796788 0.000000 0.000000
         }
        }
       }
      }
     }
     JOINT LeftCollar
     {
      OFFSET 3.071622 7.873185 0.000000
      CHANNELS 3 Yrotation Xrotation Zrotation
      JOINT LeftShoulder
      {
       OFFSET 14.378659 0.000000 0.000000
       CHANNELS 3 Yrotation Xrotation Zrotation
       JOINT LeftElbow
       {
        OFFSET 30.778728 0.000000 0.000000
        CHANNELS 3 Yrotation Xrotation Zrotation
        JOINT LeftWrist
        {
         OFFSET 25.164217 0.000000 0.000000
         CHANNELS 3 Yrotation Xrotation Zrotation
         End Site
         {
          OFFSET 18.796788 0.000000 0.000000
         }
        }
       }
      }
     }
    }
   }
  }
 }
 JOINT RightHip
 {
  OFFSET -8.194923 0.005295 0.000540
  CHANNELS 3 Yrotation Xrotation Zrotation
  JOINT RightKnee
  {
   OFFSET 0.000000 -42.473320 -0.000511
   CHANNELS 3 Yrotation Xrotation Zrotation
   JOINT RightAnkle
   {
    OFFSET 0.000000 -41.474259 -0.000865
    CHANNELS 3 Yrotation Xrotation Zrotation
    JOINT RightToe
    {
     OFFSET 0.000000 -7.354994 16.712725
     CHANNELS 3 Yrotation Xrotation Zrotation
     End Site
     {
      OFFSET 0.000000 -1.553903 6.764158
     }
    }
   }
  }
 }
 JOINT LeftHip
 {
  OFFSET 8.194923 0.005295 0.000540
  CHANNELS 3 Yrotation Xrotation Zrotation
  JOINT LeftKnee
  {
   OFFSET 0.000000 -42.473320 -0.000511
   CHANNELS 3 Yrotation Xrotation Zrotation
   JOINT LeftAnkle
   {
    OFFSET 0.000000 -41.474259 -0.000865
    CHANNELS 3 Yrotation Xrotation Zrotation
    JOINT LeftToe
    {
     OFFSET 0.000000 -7.354994 16.712725
     CHANNELS 3 Yrotation Xrotation Zrotation
     End Site
     {
      OFFSET 0.000000 -1.553903 6.764158
     }
    }
   }
  }
 }
}
MOTION
Frames: 5
Frame Time: 0.016667
-84.535356 90.541243 -35.692189 44.396320 -14.598882 -3.935117 -0.335355 4.603263 2.855240 0.082163 2.406757 1.472342 0.082163 2.406757 1.472342 0.055812 1.805278 1.103770 -3.218808 19.664053 1.375679 -6.304138 0.471016 3.509816 -1.229232 -4.866724 14.085001 -13.269940 -28.710604 32.097543 113.314235 -11.218369 16.528797 0.911832 1.951040 -8.775697 -12.059191 -3.078644 -9.239052 -7.595535 -40.929926 -69.713908 -101.379414 -19.536526 -50.682943 2.066323 12.401816 18.725830 -6.354919 6.696681 -2.826012 -4.976328 25.406830 -2.811064 -11.928490 -14.576399 13.702131 -0.171865 4.448409 -1.616831 16.998904 -15.944463 11.081128 18.905671 48.487700 -8.072041 0.143934 -2.532482 -6.160697 0.189133 -2.325704 0.677203
-85.042474 90.805933 -36.614095 43.180343 -14.563844 -3.509760 -0.193510 5.099412 3.032897 -0.038907 2.356191 1.457759 -0.038907 2.356191 1.457759 -0.034799 1.767062 1.093315 -3.305164 19.731882 1.365126 -6.455323 0.601177 3.513303 -1.356356 -5.051377 13.898390 -13.025023 -28.690620 32.475731 113.273325 -11.242525 16.341028 0.968982 1.901415 -8.785725 -12.323691 -3.422326 -9.294828 -8.026128 -41.218218 -69.012184 -101.555296 -19.898513 -50.235163 2.075896 12.285733 18.753055 -6.424477 6.451265 -3.242796 -4.128342 23.888986 -2.750947 -11.377554 -13.441448 13.691142 -0.320712 3.975206 -1.612135 16.242473 -14.779134 12.101911 18.762939 48.213242 -7.726227 2.606609 -2.982765 -5.039495 -0.186422 -2.648024 0.860407
-85.484525 90.990618 -37.584857 42.238102 -14.168590 -3.125922 -0.294263 5.151355 3.100722 -0.131399 2.288244 1.440697 -0.131399 2.288244 1.440697 -0.103933 1.715885 1.080871 -3.447045 19.798928 1.333128 -6.701160 0.731800 3.494577 -1.407749 -5.204250 13.601090 -12.925289 -28.563525 32.651215 113.426427 -11.463453 15.997150 1.085910 1.774377 -8.761532 -12.619549 -3.801987 -9.456118 -8.780255 -41.589589 -68.163222 -101.582725 -20.124409 -49.681021 2.141746 12.169085 18.701760 -6.819316 5.935018 -3.718608 -3.147513 22.302886 -2.577679 -11.041336 -12.372416 13.739243 -0.370184 3.633506 -1.619979 14.810167 -13.588125 13.130031 18.718131 47.943595 -7.728990 3.843377 -3.523115 -4.180589 -0.524389 -4.060630 0.955200
-85.841455 91.094396 -38.559029 41.167794 -13.676510 -2.753283 -0.334319 5.037203 3.135221 -0.160062 2.212897 1.431205 -0.160062 2.212897 1.431205 -0.125217 1.659309 1.073850 -3.598065 19.869570 1.296944 -6.962121 0.869443 3.470554 -1.320856 -5.335730 13.241745 -12.812390 -28.472371 32.522952 113.604307 -11.706852 15.555458 1.150889 1.696386 -8.765397 -12.752266 -4.212359 -9.760757 -9.465852 -42.253750 -67.464298 -101.391675 -20.242239 -49.413223 2.214711 12.085774 18.613759 -7.015780 5.287070 -4.173328 -2.175634 20.837487 -2.353653 -10.845645 -11.475906 13.884355 -0.402759 3.431069 -1.660285 13.295469 -12.253010 14.112959 18.507410 47.933418 -7.707035 4.161571 -4.503312 -3.973775 -0.615034 -5.871033 1.034565
-86.121090 91.150417 -39.570932 40.024456 -13.072042 -2.370512 -0.342623 4.798977 3.106806 -0.141402 2.141982 1.409532 -0.141402 2.141982 1.409532 -0.110982 1.606171 1.057522 -3.733536 19.925791 1.272622 -7.198960 0.980315 3.464034 -1.204588 -5.604625 12.913727 -12.702791 -28.555467 32.171088 113.600310 -11.886942 15.231896 1.117913 1.685311 -8.734333 -12.832265 -4.675889 -10.031231 -9.881200 -43.088036 -67.048545 -101.268002 -20.259102 -49.376156 2.279778 12.114938 18.502634 -7.104889 4.402450 -4.660480 -1.387266 19.606914 -2.171241 -10.575651 -10.771107 14.116238 -0.400187 3.350204 -1.692087 12.026667 -10.819211 15.012929 18.770144 47.934290 -7.558210 3.890674 -5.471072 -3.562748 -0.661105 -7.730632 0.655670
